<svg width="154" height="114" viewBox="0 0 154 114" fill="none" xmlns="http://www.w3.org/2000/svg">
<path d="M20.4402 11.2034C10.4456 11.0381 2.62243 13.7587 0.4641 20.8306C-4.00035 35.4435 24.8779 51.1247 38.489 58.5992C41.4134 60.1967 42.6662 59.2 40.8151 57.0611C32.2129 47.1616 19.9785 27.667 37.2452 16.2259C38.0852 15.6721 39.1093 15.0425 40.0271 14.5074L40.3022 14.3557L40.0271 14.3071C33.2196 12.441 26.437 11.3016 20.4402 11.2025V11.2034ZM113.305 54.4976C111.806 54.204 111.439 55.1626 112.839 56.7668C121.426 66.6648 133.682 86.1547 116.4 97.602V97.5923C115.575 98.1461 114.57 98.7789 113.637 99.3202L113.352 99.4816L113.637 99.5205C131.774 104.497 149.727 104.31 153.181 92.9884C157.645 78.3755 128.782 62.6975 115.156 55.2293C114.429 54.8297 113.804 54.5962 113.305 54.4983L113.305 54.4976Z" fill="#008BC7"/>
<path d="M103.449 0C63.1294 0 40.2929 14.3555 40.2929 14.3555C67.064 19.3924 120.01 46.3135 137.012 46.3135C143.623 46.3135 146.801 39.8869 146.801 32.2429C146.801 23.3218 143.626 13.6153 137.762 7.86134C132.209 2.38579 119.067 0 103.449 0V0ZM16.6425 67.5049C10.0314 67.5049 6.86328 73.9348 6.86328 81.5851C6.86328 90.5062 10.034 100.206 15.8829 105.967C21.4518 111.436 34.5967 113.837 50.2145 113.837C90.519 113.837 113.371 99.4724 113.371 99.4724C86.5999 94.4355 33.6447 67.5049 16.6425 67.5049V67.5049Z" fill="#07B6D5"/>
</svg>
