<svg width="2127" height="2093" viewBox="0 0 2127 2093" fill="none" xmlns="http://www.w3.org/2000/svg">
<path opacity="0.698613" d="M1239.21 0.741905C1459.76 -4.03846 1711.51 10.1613 1865.66 167.764C2019.21 324.753 1974.29 579.627 2016.15 795.074C2054.78 993.876 2179.76 1197.07 2102.01 1384.1C2024.66 1570.15 1787.07 1615.79 1625.07 1735.79C1473.04 1848.41 1362.68 2022.24 1178.99 2067.81C985.518 2115.81 766.035 2097.95 598.187 1990.54C435.498 1886.42 393.496 1676.54 301.991 1506.57C215.804 1346.48 113.672 1199.97 76.754 1021.98C31.8873 805.675 -65.4639 549.812 66.8197 372.776C199.999 194.542 483.88 260.457 696.098 193.115C882.951 133.821 1043.2 4.99052 1239.21 0.741905Z" fill="#F2AA87"/>
</svg>
